<svg width="48" height="50" viewBox="0 0 48 50" fill="none" xmlns="http://www.w3.org/2000/svg">
<path d="M23.1707 0.689667C10.4106 0.689667 0.0666809 11.5671 0.0666809 24.9852C0.0666809 32.5057 3.31664 39.2277 8.41955 43.6842L8.51389 43.6376V42.3323C8.51389 40.1997 10.1637 38.4648 12.1917 38.4648H34.1497C36.1777 38.4648 37.8275 40.1997 37.8275 42.3323V43.6376L37.9218 43.6842C43.0247 39.2277 46.2747 32.5057 46.2747 24.9852C46.2747 11.5671 35.9306 0.689667 23.1707 0.689667Z" fill="#5F80F8"/>
<path d="M15.8158 36.4415H30.5269V38.4651H15.8158V36.4415Z" fill="white"/>
<path d="M15.8158 36.4415H19.5879V38.4651H15.8158V36.4415Z" fill="#EAF6FF"/>
<path d="M34.1505 38.3658H12.1925C10.1093 38.3658 8.42036 40.1417 8.42036 42.3324V43.6843C12.4221 47.1792 17.5633 49.2808 23.1715 49.2808C28.7797 49.2808 33.9209 47.1792 37.9226 43.6843V42.3324C37.9226 40.1416 36.2337 38.3658 34.1505 38.3658Z" fill="#D8ECFE"/>
<path d="M12.3411 42.3324C12.3411 40.1417 14.0299 38.3658 16.1132 38.3658H12.1925C10.1093 38.3658 8.42036 40.1417 8.42036 42.3324V43.6843C9.62938 44.7401 10.9427 45.6679 12.3411 46.4494V42.3324Z" fill="#C4E2FF"/>
<path d="M23.5285 46.0515L26.2273 42.7622C26.4908 42.4409 26.2738 41.9425 25.8702 41.9425H20.4728C20.0693 41.9425 19.8522 42.4409 20.1158 42.7622L22.8145 46.0515C23.0026 46.2813 23.3404 46.2813 23.5285 46.0515Z" fill="white"/>
<path d="M22.0609 42.7622C21.7974 42.4409 22.0144 41.9425 22.418 41.9425H20.4728C20.0693 41.9425 19.8522 42.4409 20.1158 42.7622L22.8144 46.0515C23.0026 46.2813 23.3404 46.2813 23.5285 46.0515L24.1441 45.3014L22.0609 42.7622Z" fill="#EAF6FF"/>
<path d="M8.26265 31.9002V27.5959C8.26265 26.8045 8.33745 26.0311 8.47916 25.2827H7.79018C6.39749 25.2827 5.26857 26.4699 5.26857 27.9344V30.1882C5.26857 31.6527 6.39749 32.8398 7.79018 32.8398H8.35622C8.29519 32.5366 8.26265 32.2223 8.26265 31.9002Z" fill="white"/>
<path d="M38.5536 25.2827H37.8647C38.0063 26.031 38.0812 26.8045 38.0812 27.5959V31.9002C38.0812 32.2223 38.0485 32.5366 37.9876 32.8399H38.5537C39.9463 32.8399 41.0753 31.6527 41.0753 30.1883V27.9345C41.0752 26.4699 39.9462 25.2827 38.5536 25.2827Z" fill="white"/>
<path d="M33.7623 36.5404H12.5813C10.1443 36.5404 8.16859 34.463 8.16859 31.9002V27.596C8.16859 21.006 13.2488 15.6638 19.5155 15.6638H26.828C33.0947 15.6638 38.175 21.006 38.175 27.596V31.9002C38.175 34.463 36.1993 36.5404 33.7623 36.5404Z" fill="#D8ECFE"/>
<path d="M13.0816 31.9001V30.3576C12.3706 29.3035 11.951 28.0176 11.951 26.6298C11.951 24.296 13.1339 22.2474 14.9023 21.1118C16.9245 17.8331 20.4355 15.6638 24.4285 15.6638H19.5156C13.2489 15.6638 8.16859 21.006 8.16859 27.596V31.9002C8.16859 34.463 10.1443 36.5404 12.5813 36.5404H17.4942C15.0572 36.5404 13.0816 34.463 13.0816 31.9001Z" fill="#C4E2FF"/>
<path d="M18.0951 33.0908C14.7073 33.0908 11.951 30.1923 11.951 26.6297C11.951 23.0672 14.7073 20.1689 18.0951 20.1689H28.2488C31.6366 20.1689 34.3929 23.0672 34.3929 26.6297C34.3929 30.1923 31.6366 33.0908 28.2488 33.0908H18.0951Z" fill="#116D9A"/>
<path d="M15.9107 26.6297C15.9107 23.0672 18.667 20.1689 22.0548 20.1689H18.0951C14.7073 20.1689 11.951 23.0672 11.951 26.6297C11.951 30.1923 14.7073 33.0908 18.0951 33.0908H22.0548C18.667 33.0908 15.9107 30.1923 15.9107 26.6297Z" fill="#005E89"/>
<path d="M26.4499 29.7453H19.8939C19.5457 29.7453 19.2634 29.4485 19.2634 29.0825V28.0218C19.2634 27.6556 19.5457 27.3588 19.8939 27.3588H26.4499C26.7981 27.3588 27.0804 27.6556 27.0804 28.0218V29.0825C27.0804 29.4485 26.7981 29.7453 26.4499 29.7453Z" fill="#F2C94C"/>
<path d="M18.1599 26.5635H16.5208C16.1727 26.5635 15.8905 26.2667 15.8905 25.9007V24.1771C15.8905 23.8111 16.1727 23.5143 16.5208 23.5143H18.1599C18.508 23.5143 18.7902 23.8111 18.7902 24.1771V25.9007C18.7902 26.2667 18.508 26.5635 18.1599 26.5635Z" fill="#F2C94C"/>
<path d="M29.8216 26.5635H28.1825C27.8344 26.5635 27.5522 26.2667 27.5522 25.9007V24.1771C27.5522 23.8111 27.8344 23.5143 28.1825 23.5143H29.8216C30.1697 23.5143 30.4519 23.8111 30.4519 24.1771V25.9007C30.4519 26.2667 30.1697 26.5635 29.8216 26.5635Z" fill="#F2C94C"/>
<path fill-rule="evenodd" clip-rule="evenodd" d="M41.4613 14.8581C44.1196 14.8581 46.2747 12.592 46.2747 9.79656C46.2747 7.00115 44.1196 4.73499 41.4613 4.73499C38.803 4.73499 36.648 7.00115 36.648 9.79656C36.648 12.592 38.803 14.8581 41.4613 14.8581Z" fill="#27AE60" stroke="#F7F8FB" stroke-width="1.5"/>
</svg>
